# AST/ASF file generated using VICON BodyLanguage
# -----------------------------------------------
:version 1.10
:name VICON
:units
  mass 1.0
  length 0.45
  angle deg
:documentation
   .ast/.asf automatically generated from VICON data using
   VICON BodyBuilder and BodyLanguage model FoxedUp or BRILLIANT.MOD
:root
   order TX TY TZ RX RY RZ
   axis XYZ
   position 0 0 0  
   orientation 0 0 0 
:bonedata
  begin
     id 1 
     name lhipjoint
     direction 0.693937 -0.600361 0.397515 
     length 2.37164 
     axis 0 0 0  XYZ
  end
  begin
     id 2 
     name lfemur
     direction 0.34202 -0.939693 0  
     length 6.18497  
     axis 0 0 20  XYZ
    dof rx ry rz
    limits (-160.0 20.0)
           (-70.0 70.0)
           (-60.0 70.0)
  end
  begin
     id 3 
     name ltibia
     direction 0.34202 -0.939693 0   
     length 6.91601   
     axis 0 0 20   XYZ
    dof rx
    limits (-10.0 170.0)
  end
  begin
     id 4 
     name lfoot
     direction 0.0978718 -0.2689 0.958182   
     length 1.81453   
     axis -90 7.62852e-016 20   XYZ
    dof rx rz
    limits (-45.0 90.0)
           (-70.0 20.0)
  end
  begin
     id 5 
     name ltoes
     direction 1.53569e-011 -4.21951e-011 1   
     length 0.912052   
     axis -90 7.62852e-016 20   XYZ
    dof rx
    limits (-90.0 20.0)
  end
  begin
     id 6 
     name rhipjoint
     direction -0.643996 -0.637876 0.422354   
     length 2.23216  
     axis 0 0 0  XYZ 
  end
  begin
     id 7 
     name rfemur
     direction -0.34202 -0.939693 0   
     length 6.15404   
     axis 0 0 -20   XYZ
    dof rx ry rz
    limits (-160.0 20.0)
           (-70.0 70.0)
           (-70.0 60.0)
  end
  begin
     id 8 
     name rtibia
     direction -0.34202 -0.939693 0   
     length 6.86744   
     axis 0 0 -20   XYZ
    dof rx
    limits (-10.0 170.0)
 end
 begin
     id 9 
     name rfoot
     direction -0.118701 -0.326127 0.937844   
     length 1.9243  
     axis -90 -7.62852e-016 -20   XYZ
    dof rx rz
    limits (-45.0 90.0)
           (-20.0 70.0)
  end
  begin
     id 10 
     name rtoes
     direction -1.5356e-011 -4.2181e-011 1   
     length 0.958865   
     axis -90 -7.62852e-016 -20   XYZ
    dof rx
    limits (-90.0 20.0)
  end
  begin
     id 11 
     name lowerback
     direction 0.0310826 0.968686 -0.246334   
     length 2.00021   
     axis 0 0 0   XYZ
    dof rx ry rz
    limits (-20.0 45.0)
           (-30.0 30.0)
           (-30.0 30.0)
  end
  begin
     id 12 
     name upperback
     direction -0.0152834 0.999474 -0.0286152   
     length 2.03728   
     axis 0 0 0   XYZ
    dof rx ry rz
    limits (-20.0 45.0)
           (-30.0 30.0)
           (-30.0 30.0)
  end
  begin
     id 13 
     name thorax
     direction -0.0323701 0.996236 0.0804149   
     length 2.16   
     axis 0 0 0   XYZ
    dof rx ry rz
    limits (-20.0 45.0)
           (-30.0 30.0)
           (-30.0 30.0)
  end
  begin
     id 14 
     name lowerneck
     direction 0.0307935 0.982251 0.185027   
     length 1.43558   
     axis 0 0 0   XYZ
    dof rx ry rz
    limits (-20.0 45.0)
           (-30.0 30.0)
           (-30.0 30.0)
  end
  begin
     id 15 
     name upperneck
     direction -0.0927153 0.994775 0.0427454   
     length 1.44603   
     axis 0 0 0   XYZ
    dof rx ry rz
    limits (-20.0 45.0)
           (-30.0 30.0)
           (-30.0 30.0)
  end
  begin
     id 16
     name head
     direction -0.0341265 0.999406 -0.00472033  
     length 1.45931  
     axis 0 0 0   XYZ
    dof rx ry rz
    limits (-20.0 45.0)
           (-30.0 30.0)
           (-30.0 30.0)
  end
  begin
     id 17 
     name lclavicle
     direction 0.820755 0.555306 -0.134151  
     length 2.66075  
     axis 0 0 0   XYZ
    dof ry rz
    limits (-20.0 10.0)
           (0.0 20.0)
  end
  begin
     id 18 
     name lhumerus
     direction 1 -4.48971e-011 5.24853e-027   
     length 5.0546   
     axis -180 -30 -90   XYZ
    dof rx ry rz
    limits (-60.0 90.0)
           (-90.0 90.0)
           (-90.0 90.0)
  end
  begin
     id 19
     name lradius
     direction 1 -4.48971e-011 2.76575e-028   
     length 3.39013   
     axis -180 -30 -90   XYZ
    dof rx
    limits (-10.0 170.0)
  end
  begin
     id 20
     name lwrist
     direction 1 -4.48939e-011 -2.27826e-027   
     length 1.69507   
     axis 2.17013e-015 90 90   XYZ
    dof ry
    limits (-180.0 0.0)
 end
  begin
     id 21 
     name lhand
     direction 1 -4.49009e-011 -4.55652e-027   
     length 0.572425   
     axis 2.90745e-015 90 90   XYZ
    dof rx rz
    limits (-90.0 90.0)
           (-45.0 45.0)
  end
  begin
     id 22 
     name lfingers
     direction 1 -4.48955e-011 -9.11303e-027   
     length 0.461504   
     axis 5.81489e-015 90 90   XYZ
    dof rx
    limits (0.0 90.0)
  end
  begin
     id 23
     name lthumb
     direction 0.707107 -6.34929e-011 0.707107   
     length 0.66263   
     axis -90 45 2.85299e-015   XYZ
    dof rx rz
    limits (-45.0 45.0)
           (-45.0 45.0)
  end
  begin
     id 24 
     name rclavicle
     direction -0.754477 0.632921 -0.173712   
     length 2.73081  
     axis 0 0 0   XYZ 
    dof ry rz
    limits (-10.0 20.0)
           (-20.0 0.0)
  end
  begin
     id 25 
     name rhumerus
     direction -1 -4.48969e-011 5.1496e-027  
     length 5.0701   
     axis -180 30 90   XYZ
    dof rx ry rz
    limits (-90.0 60.0)
           (-90.0 90.0)
           (-90.0 90.0)
  end
  begin
     id 26 
     name rradius
     direction -1 -4.48967e-011 -7.15624e-028   
     length 3.14957   
     axis -180 30 90   XYZ
    dof rx
    limits (-10.0 170.0)
  end
  begin
     id 27 
     name rwrist
     direction -1 -4.48938e-011 -2.27826e-027   
     length 1.57479   
     axis 2.17013e-015 -90 -90   XYZ
    dof ry
    limits (-180.0 0.0)
  end
  begin
     id 28
     name rhand
     direction -1 -4.49008e-011 -4.55652e-027   
     length 0.718191   
     axis 2.90745e-015 -90 -90   XYZ
    dof rx rz
    limits (-90.0 90.0)
           (-45.0 45.0)
  end
  begin
     id 29
     name rfingers
     direction -1 -4.48953e-011 -9.11303e-027   
     length 0.579024   
     axis 5.81489e-015 -90 -90   XYZ
    dof rx
    limits (0.0 90.0)
  end
  begin
     id 30
     name rthumb
     direction -0.707107 -6.34937e-011 0.707107   
     length 0.831366   
     axis -90 -45 -2.85299e-015   XYZ
    dof rx rz
    limits (-45.0 45.0)
           (-45.0 45.0)
  end
:hierarchy
  begin
    root lhipjoint rhipjoint lowerback
    lhipjoint lfemur
    lfemur ltibia
    ltibia lfoot
    lfoot ltoes
    rhipjoint rfemur
    rfemur rtibia
    rtibia rfoot
    rfoot rtoes
    lowerback upperback
    upperback thorax
    thorax lowerneck lclavicle rclavicle
    lowerneck upperneck
    upperneck head
    lclavicle lhumerus
    lhumerus lradius
    lradius lwrist
    lwrist lhand lthumb
    lhand lfingers
    rclavicle rhumerus
    rhumerus rradius
    rradius rwrist
    rwrist rhand rthumb
    rhand rfingers
  end

#!OML:ASF H:\Male1\Project 1\Capture day 1\Session 1\Male1.ASF
:FULLY-SPECIFIED
:DEGREES
1
root -24.4953 15.2911 0.162464 -14.7018 86.1571 -12.7116
lowerback 3.05389 1.97851 -0.491888
upperback 3.48942 2.70359 -0.751714
thorax 1.88369 1.37816 -0.530696
lowerneck -11.4284 2.72485 5.88165
upperneck 24.6135 3.4354 -1.44195
head 9.81119 2.16345 -1.0611
rclavicle -1.23743e-014 1.07344e-014
rhumerus -34.7882 4.51964 -91.2565
rradius 34.4776
rwrist -19.9868
rhand -17.078 1.25611
rfingers 7.12502
rthumb 9.16011 -28.5249
lclavicle -1.23743e-014 1.07344e-014
lhumerus -27.2218 -1.71842 88.4532
lradius 26.8901
lwrist -5.90974
lhand -16.8923 10.2227
lfingers 7.12502
lthumb 9.33926 39.9958
rfemur -1.89659 16.3607 26.3716
rtibia 19.8965
rfoot -25.0284 -33.0206
rtoes -19.338
lfemur -3.82596 -17.5047 -22.4611
ltibia 22.5895
lfoot -20.5378 22.6521
ltoes -5.52821
2
root -24.4962 15.29 0.163952 -14.95 86.1675 -12.9543
lowerback 3.09049 2.05197 -0.406149
upperback 3.48983 2.8053 -0.87175
thorax 1.87458 1.43306 -0.704138
lowerneck -11.5857 2.65774 6.05551
upperneck 24.6006 3.26406 -1.35273
head 9.83265 2.10749 -1.0779
rclavicle -1.05853e-014 1.66979e-014
rhumerus -34.7911 4.14112 -91.3254
rradius 34.4927
rwrist -19.9253
rhand -17.1458 1.26431
rfingers 7.12502
rthumb 9.09463 -28.5196
lclavicle -1.05853e-014 1.66979e-014
lhumerus -27.2282 -2.28151 88.4093
lradius 26.9434
lwrist -5.75175
lhand -16.7171 10.2956
lfingers 7.12502
lthumb 9.50828 40.0611
rfemur -1.88904 16.3782 26.3984
rtibia 19.9034
rfoot -25.0935 -33.0431
rtoes -19.157
lfemur -3.82887 -17.5106 -22.4353
ltibia 22.5935
lfoot -20.5995 22.6023
ltoes -5.25603
3
root -24.4948 15.2895 0.163965 -14.9486 86.2201 -12.9608
lowerback 3.06796 2.06267 -0.409857
upperback 3.50538 2.82143 -0.922123
thorax 1.90582 1.44205 -0.752529
lowerneck -11.6961 2.62953 6.20675
upperneck 24.5021 3.18952 -1.41877
head 9.81989 2.07443 -1.13464
rclavicle 1.14301e-015 -1.59028e-015
rhumerus -34.8201 4.05751 -91.356
rradius 34.5353
rwrist -19.9374
rhand -17.2624 1.18181
rfingers 7.12502
rthumb 8.98213 -28.607
lclavicle 1.14301e-015 -1.59028e-015
lhumerus -27.229 -2.68279 88.4329
lradius 26.9925
lwrist -5.58713
lhand -16.6245 10.1221
lfingers 7.12502
lthumb 9.59764 39.8835
rfemur -1.85924 16.3196 26.3755
rtibia 19.8575
rfoot -25.1675 -33.0469
rtoes -19.0519
lfemur -3.84044 -17.5501 -22.4505
ltibia 22.6168
lfoot -20.6558 22.5537
ltoes -4.96197
4
root -24.4931 15.2903 0.162185 -15.2505 86.2561 -13.288
lowerback 3.05167 2.03076 -0.435321
upperback 3.51675 2.77866 -0.904709
thorax 1.92407 1.41988 -0.719027
lowerneck -11.7899 2.6347 6.16796
upperneck 24.388 3.18589 -1.41267
head 9.79601 2.06418 -1.12597
rclavicle -7.55382e-015 -9.14409e-015
rhumerus -34.8005 4.18284 -91.355
rradius 34.5112
rwrist -20.0067
rhand -17.3426 1.11701
rfingers 7.12502
rthumb 8.90474 -28.6751
lclavicle -7.55382e-015 -9.14409e-015
lhumerus -27.2204 -2.83436 88.4965
lradius 27.0141
lwrist -5.54268
lhand -16.6422 9.88321
lfingers 7.12502
lthumb 9.58058 39.6454
rfemur -1.86027 16.2676 26.3661
rtibia 19.8065
rfoot -25.1258 -33.069
rtoes -19.1338
lfemur -3.86962 -17.5952 -22.4458
ltibia 22.6529
lfoot -20.7105 22.5341
ltoes -4.70934
5
root -24.4932 15.2911 0.161105 -16.3412 86.2027 -14.3823
lowerback 3.09997 2.0375 -0.359504
upperback 3.52543 2.78862 -0.894798
thorax 1.9092 1.42663 -0.753015
lowerneck -11.8649 2.66343 6.10614
upperneck 24.2477 3.20289 -1.33162
head 9.75872 2.06943 -1.08506
rclavicle -6.70898e-015 9.93923e-015
rhumerus -34.7443 4.18045 -91.3469
rradius 34.4459
rwrist -20.0189
rhand -17.2827 1.16536
rfingers 7.12502
rthumb 8.96255 -28.6243
lclavicle -6.70898e-015 9.93923e-015
lhumerus -27.1651 -3.04082 88.5341
lradius 26.9763
lwrist -5.51034
lhand -16.7546 9.74934
lfingers 7.12502
lthumb 9.47211 39.5165
rfemur -1.84133 16.2601 26.447
rtibia 19.7546
rfoot -25.0226 -33.0482
rtoes -19.2173
lfemur -3.88286 -17.5697 -22.3671
ltibia 22.6907
lfoot -20.6785 22.5979
ltoes -5.13416
6
root -24.494 15.2916 0.161911 -17.1965 86.1273 -15.2292
lowerback 3.15846 2.0486 -0.313643
upperback 3.52343 2.80367 -0.890506
thorax 1.87657 1.43524 -0.776821
lowerneck -11.9718 2.70214 6.06384
upperneck 24.2225 3.23184 -1.24206
head 9.76939 2.08619 -1.04204
rclavicle -5.56597e-015 1.19271e-015
rhumerus -34.7659 4.18903 -91.3577
rradius 34.4569
rwrist -20.0084
rhand -17.1887 1.26451
rfingers 7.12502
rthumb 9.05321 -28.5212
lclavicle -5.56597e-015 1.19271e-015
lhumerus -27.1569 -3.20979 88.5359
lradius 26.969
lwrist -5.4206
lhand -16.9088 9.6999
lfingers 7.12502
lthumb 9.32332 39.4737
rfemur -1.80248 16.2357 26.5274
rtibia 19.6993
rfoot -24.9522 -32.9707
rtoes -19.2059
lfemur -3.89541 -17.5425 -22.2875
ltibia 22.7393
lfoot -20.6785 22.6419
ltoes -5.45662
7
root -24.494 15.2907 0.163397 -17.3236 86.089 -15.3464
lowerback 3.18384 2.0397 -0.356503
upperback 3.52624 2.79101 -0.886372
thorax 1.86288 1.428 -0.749493
lowerneck -12.0392 2.7265 6.09012
upperneck 24.2003 3.26016 -1.27639
head 9.77666 2.09574 -1.05431
rclavicle -1.23743e-014 -1.59028e-015
rhumerus -34.8265 4.24517 -91.3762
rradius 34.5256
rwrist -20.0126
rhand -17.1419 1.29905
rfingers 7.12502
rthumb 9.09844 -28.4847
lclavicle -1.23743e-014 -1.59028e-015
lhumerus -27.1707 -3.204 88.5215
lradius 26.9883
lwrist -5.40204
lhand -17.1783 9.89238
lfingers 7.12502
lthumb 9.06334 39.6777
rfemur -1.74578 16.2772 26.5621
rtibia 19.6189
rfoot -24.9487 -32.9714
rtoes -19.1876
lfemur -3.9263 -17.5408 -22.2591
ltibia 22.819
lfoot -20.7828 22.6057
ltoes -5.18693
8
root -24.4949 15.29 0.164536 -17.3583 86.026 -15.3745
lowerback 3.19723 2.03128 -0.397145
upperback 3.54258 2.77944 -0.875512
thorax 1.86963 1.42138 -0.715708
lowerneck -12.0218 2.76198 6.1624
upperneck 24.0618 3.32276 -1.42181
head 9.73031 2.11052 -1.1105
rclavicle 2.96189e-014 -6.75868e-015
rhumerus -34.8392 4.33795 -91.4007
rradius 34.5745
rwrist -20.0442
rhand -17.1154 1.25315
rfingers 7.12502
rthumb 9.12401 -28.5295
lclavicle 2.96189e-014 -6.75868e-015
lhumerus -27.1511 -3.02644 88.4888
lradius 26.9867
lwrist -5.54995
lhand -17.6675 10.17
lfingers 7.12502
lthumb 8.59123 39.9753
rfemur -1.69885 16.3657 26.5974
rtibia 19.5258
rfoot -24.8858 -33.0452
rtoes -19.4818
lfemur -3.96245 -17.4986 -22.232
ltibia 22.9117
lfoot -20.8877 22.5753
ltoes -5.00474
9
root -24.4956 15.2908 0.164413 -19.4446 85.9087 -17.467
lowerback 3.20614 2.02421 -0.244756
upperback 3.55352 2.77182 -0.828134
thorax 1.88061 1.42029 -0.752134
lowerneck -12.056 2.78059 6.1638
upperneck 24.0357 3.3641 -1.50626
head 9.73047 2.11868 -1.13491
rclavicle -1.50579e-014 2.38542e-015
rhumerus -34.818 4.4052 -91.4185
rradius 34.5513
rwrist -20.0278
rhand -17.0537 1.28992
rfingers 7.12502
rthumb 9.18356 -28.4901
lclavicle -1.50579e-014 2.38542e-015
lhumerus -27.1533 -2.81747 88.4454
lradius 27.0068
lwrist -5.7272
lhand -18.2585 10.3039
lfingers 7.12502
lthumb 8.02086 40.1317
rfemur -1.66972 16.3699 26.783
rtibia 19.4376
rfoot -24.7235 -33.063
rtoes -19.7856
lfemur -4.00308 -17.4216 -22.0404
ltibia 22.9995
lfoot -20.8851 22.6017
ltoes -5.28738
10
root -24.4941 15.2912 0.163512 -21.397 85.7795 -19.4223
lowerback 3.19502 2.03739 -0.0534099
upperback 3.56098 2.79198 -0.790313
thorax 1.90193 1.43406 -0.81972
lowerneck -12.1216 2.78055 6.09707
upperneck 24.0814 3.38479 -1.5444
head 9.75899 2.11817 -1.13356
rclavicle 1.43622e-014 4.37326e-015
rhumerus -34.7644 4.33463 -91.3922
rradius 34.4435
rwrist -19.9185
rhand -16.9471 1.41988
rfingers 7.12502
rthumb 9.28635 -28.3556
lclavicle 1.43622e-014 4.37326e-015
lhumerus -27.1712 -2.70901 88.4263
lradius 27.0312
lwrist -5.78083
lhand -18.8067 10.4165
lfingers 7.12502
lthumb 7.49172 40.2638
rfemur -1.63029 16.3819 26.9699
rtibia 19.352
rfoot -24.4579 -33.0669
rtoes -19.9244
lfemur -4.0297 -17.3814 -21.8543
ltibia 23.0838
lfoot -20.903 22.6476
ltoes -5.40768
11
root -24.4924 15.2916 0.162761 -21.1413 85.7195 -19.1867
lowerback 3.16489 2.05075 -0.0505071
upperback 3.55423 2.80957 -0.790764
thorax 1.91225 1.44273 -0.82097
lowerneck -12.184 2.78332 6.02058
upperneck 24.1372 3.40476 -1.55039
head 9.78985 2.12039 -1.1194
rclavicle 4.55714e-014 -6.36111e-015
rhumerus -34.7417 4.30945 -91.3592
rradius 34.376
rwrist -19.9178
rhand -16.9048 1.45069
rfingers 7.12502
rthumb 9.32718 -28.323
lclavicle 4.55714e-014 -6.36111e-015
lhumerus -27.184 -2.62187 88.4435
lradius 27.0229
lwrist -5.6833
lhand -19.647 9.93183
lfingers 7.12502
lthumb 6.68057 39.8064
rfemur -1.61856 16.4205 26.9667
rtibia 19.2884
rfoot -24.31 -33.0533
rtoes -20.0019
lfemur -4.06996 -17.427 -21.8506
ltibia 23.1459
lfoot -21.0396 22.6709
ltoes -5.03828
